/* XPM */
static char *_8f508c9b5ed495acc9c1b732bd70b22eVEyPjhLBLD6aOgM[] = {
/* columns rows colors chars-per-pixel */
"64 64 110 2 ",
"   c #040105",
".  c #030004",
"X  c #020004",
"o  c #030005",
"O  c #030007",
"+  c #050008",
"@  c #060007",
"#  c #070006",
"$  c #070005",
"%  c #080106",
"&  c #050005",
"*  c #030002",
"=  c black",
"-  c #020002",
";  c #020003",
":  c #040004",
">  c #010004",
",  c #010204",
"<  c #010104",
"1  c #000004",
"2  c #000003",
"3  c #010003",
"4  c #030105",
"5  c #030006",
"6  c #020006",
"7  c #010006",
"8  c #010000",
"9  c #020001",
"0  c #030104",
"q  c #020005",
"w  c #040007",
"e  c #050007",
"r  c #010002",
"t  c #010001",
"y  c #060005",
"u  c #050004",
"i  c #000103",
"p  c #000104",
"a  c #020007",
"s  c #040008",
"d  c #010005",
"f  c #030008",
"g  c #030003",
"h  c #040104",
"j  c #040003",
"k  c #040107",
"l  c #040005",
"z  c #040106",
"x  c #050006",
"c  c #050105",
"v  c #060004",
"b  c #060006",
"n  c #020205",
"m  c #030205",
"M  c #070007",
"N  c #080007",
"B  c #030103",
"V  c #030107",
"C  c #030106",
"Z  c #040006",
"A  c #000006",
"S  c #010106",
"D  c #010007",
"F  c #020008",
"G  c #000007",
"H  c #010101",
"J  c #020101",
"K  c #030102",
"L  c #040002",
"P  c #040101",
"I  c #030001",
"U  c #020000",
"Y  c #020106",
"T  c #010008",
"R  c #010102",
"E  c #040102",
"W  c #020105",
"Q  c #000005",
"!  c #000102",
"~  c #020104",
"^  c #070004",
"/  c #080006",
"(  c #070008",
")  c #010103",
"_  c #070106",
"`  c #000002",
"'  c #040009",
"]  c #020102",
"[  c #010105",
"{  c #020009",
"}  c #000101",
"|  c #030009",
" . c #050106",
".. c #000100",
"X. c #040108",
"o. c #060106",
"O. c #050003",
"+. c #050109",
"@. c #050002",
"#. c #020204",
"$. c #000001",
"%. c #040001",
"&. c #060008",
"*. c #060105",
"=. c #000008",
"-. c #020103",
";. c #040103",
":. c #080005",
">. c #050107",
",. c white",
/* pixels */
"  . X .   o O + @ # $ % & X & & . X X . . X . * = = - ; X ; . : : X > , < 1 2 3 4 5 6 O 6 7 > - 8 9 X 6 6 5 o 4 4         . 0   ",
"  . . . X q 6 w e & : : . X X X X X .   . . o ; r t t - X . & y u X > < i p 2 3 X q a s a a q 9 t * . q X X ; .     4 0 . 4   4 ",
"  . X X > d 7 d d > 3 3 > q 6 d X q 6 4 0 . X . . . - 9 . : y $ y . 3 3 3 3 3 3 . 5 O f a 6 q ; ; g h 4 . . * j     . X X o o . ",
"4 . ; X X X : : X 3 3 X X 6 a a 6 7 7 o . X X   4 h . ; X . y $ $ . X X X X X X . k O O 6 d > ; ; X .     X ; 0 . . X X X 5 O 6 ",
"X - 0   o : u u . ; 3 . l w O a f 7 5 z   . X .     4 q > . y $ $ # x c       . X o 5 5 6 q X . . . 4 4 4 > > d o o o 4   o 5 6 ",
"r 9 . 5 z . 4 ; X X X l v b w a a d < n m   X o o . o o q . y # # M N #   B . . ; . . o 5 V z c & l   4 d d 7 7 5 k k C h g ; X ",
"; ; q 5 5 . . X 7 6 6 O Z Z a A A 1 2 3 > X X o . X X ; ; o e e M M M & : * * * 9 9 9 - g C Z y $ y : 4 S D D D a V O O o . X X ",
". X X q q . . q 7 a F a 6 7 D G d 2 H J 9 t 9 K 9 t 9 - X 5 a a O w l h h L P I 9 8 8 U - q w # $ $ u 4 S Y D G D a f O 5 . - ; ",
"X X X d q o 5 6 7 6 5 Z x 5 a T A 2 R J - t 9 K 9 9 9 g . 5 6 a O 5 o * g E I 9 9 9 8 t r d w b y y & W 7 7 D D D D a 5 o . 9 r ",
"X X d 6 a F a 5 > 3 . @ # M + F D 1 2 3 3 3 - * I 9 9 g   . q 6 6 q X t ; - 9 8 9 9 8 9 r 3 q o & u : < d 7 S 7 7 Q q X ; ; 9 8 ",
"o X d 6 O a F q 3 ! > 6 5 @ @ w a d > . q d X g 9 9 U g X X X X l & : 9 3 t 9 8 = 8 U 8 t r q Z x l 3 > > > > d > 1 > ; - 9 t U ",
"X . o a a a f 5 ~ < d 7 O @ M M @ 5 q . 6 6 o ; r 9 U g X : u y $ ^ y o q X ; t = = t 9 9 - & M @ Z o . > 1 1 1 > > 3 3 > > ; r ",
"X h z F a a f w o X q 7 5 b # # M x X X q q q r = 8 9 g X : y $ / $ x O O 6 ; 9 8 t 3 X . . & M M ( @ . X 2 2 ) > > 2 2 Q 7 o X ",
". h 5 a 6 a a O l X X q o y $ % _ & X X > > > ` = 8 U ; . . y $ $ b e O a 7 3 9 - X 6 6 5 Z 5 O w + M & 4 ) 2 2 > 1 d D 7 D 6 X ",
". . q a q a O O o ; - ; ; v y y c   4 0 X 4 0 r 8 8 8 - . : y $ y x V O a 6 ; t 3 6 a a a 7 A A D a Z &   ~ > > 3 1 7 T D a 6 q ",
". . o a a a s 6 q . 9 - 9 g :   .     4 X l l g * I 9 9 - - u y y o 7 7 D 6 r 9 3 7 a a 7 d Q G D a 5 Z o . q q > 1 Q G d d 6 q ",
"&   o 6 O O s f a q X ; ; ; . . X . : : : y $ y y u I U U 8 j y y 5 7 D a X ; 9 ; 6 a a 6 d Q 7 D 7 d q > q 6 d > 1 Q A 7 6 6 6 ",
". : . o z z s ' F 6 5 q C o . . . . l y y y l . 0 ~ ] 9 9 8 L $ y 5 D D 6 4 q ; X 5 a O a d 1 d 7 [ < d 7 O O 7 7 7 7 D T 6 O 5 ",
"2 X X . 4 o O O a a F a V 6 X 4 4 . . . . . X < < > R 8 9 8 L y y w D T 6 Z q 1 3 q O a 7 d 2 1 > < < 7 D a D D 7 d > d 7 q o . ",
"2 2 > > X q q q 6 6 6 5 q q > X . ; 3 > p > > Q Q Q ` 8 U 8 I $ $ O { F 5 & > i 3 . l 4 1 2 ` 2 ) 2 2 Q Q A G G A 1 > 3 r r ; X ",
"< p > ; X X . . q 6 5 . X X > X X 3 3 3 3 2 1 d > 3 } t U 8 - y $ O | + x : > 2 > : y X i ) 2 2 < 2 ) > 1 7 7 7 d 7 6 q X X X X ",
"> < > > 3 > 5  .q d X : . ; 3 3 X X . ~ X X > 2 ` } ..r - r ; . : d 5 @ y : Q > < : u X > > > 3 3 > < < < 7 d 1 > 7 O O k k X.k ",
"3 < p < ) Q D O 7 Q X & : X X X X .     l y g t 8 = = - X 3 X 3 3 2 q l y l 6 6 q . . X X 3 3 3 X > < ~ 3 3 2 > q a O f O O f V ",
"> > > < ) 1 7 a 7 d > . . X X X X X : o./ $ O.9 8 8 9 B X 3 3 > > > X q . o 5 6 q > 3 3 3 3 X X X X > X X 3 3 ) 5 a a F a a a 7 ",
"> > 1 2 1 d Y C 5 o X 3 3 ; . 4 X X : y / $ O.9 8 8 9 g X 3 X . . X X 6 q q 6 a q ; > X X ; .   X ; ; 3 > ; t t X 6 X.+.O a a 6 ",
"> 3 < 2 2 d 4 & & : X X X X 4 . X X . . & ^ @.U 8 8 9 g X 3 X X X ; - - - - ; > > > 3 X . X X 4 o X > > 3 r 9 9 r X z X.O a O 5 ",
"3 X #.< < 2 4 & . X X . . X X X 3 3 X X : L U 8 8 - ; g X 3 > > 3 t U 8 8 t r 3 3 > 3 X : X > q 6 7 q X X 9 U 8 9 g     o 5   o ",
"> > < r t r . : . X X . . ; 3 3 X X X ; r $.= 8 8 ; ; . X 3 X > g j I 8 = ` 2 < > 1 3 X . X > 7 7 a O o . 9 8 8 9 0 . . . 0 h   ",
"> 3 3 - = r o . . X . . X X X X X > > r 8 = = t 9 ; X . X 3 X > . & & 9 r i p > 3 3 > > ; 3 q D a O e & u 9 8 U 9 . o . . * 9 . ",
"> 3 > 0 ; 3 X . . X     . 4     . 3 > 3 r $.3 X g X .   X 3 ; ; X 5 q 3 i 1 p 3 > X q q X q 6 F f + M y y %.9 9 I .   X ; - r ; ",
"p > X 4 . X : y u X X X > ~ X X X 3 ; > d > d 7 [ > X   . X 3 X 4 . > > 1 p i > d 7 6 V k O O F s ( M $ u L 9 I E 0 . X 3 X ; X ",
"2 3 ; . X X & $ u 3 2 2 > 3 X 3 3 X 3 X l 6 7 D A d X 0 . X X X .   X > 2 2 < > d a O s f O O f + &.@ & . 9 9 9 9 ; X X X X X 3 ",
"r - ; X X . : u : 3 2 3 > > X ; ; X 3 X o 6 D D A d l c . . : X : *.c . < < ) 1 d a O a a O O f O O 5 X 3 t U 8 t ; X .   0 X > ",
"> .   4 ~ > > > X . > > > . X > > 3 X ; X 7 7 A A d u y . X u . l _ %  .n < 2 3 Q 7 a a a f a 6 a a 6 3 t 9 8 U 9 ; . . 4 0 X d ",
"3 ~ ~ < < p 2 3 X . . . X X X > q X X X q 6 D A d > : & : X : : & y y l ) 2 ) H 3 Q D D D d > q d d d r U U 9 8 t 3 > > > . X 6 ",
"> > 2 2 2 < p > > X     . . X X q o X > n S d Q > 3 : & : X X X X . . 3 2 2 ) $.2 A =.G G Q > > X ; ; 9 8 9 9 8 t i p i > 3 > q ",
"> > < ) 3 3 3 > 3 X   . q 5 6 6 a q X > < < 1 1 X X X . . 4 X > 3 2 X X X > 3 ` $.> 7 7 7 d > ~   0 * U 8 t 8 8 t < ~ n 4 . X 6 ",
"< 0   B 9 t 3 > > X 4 X > 6 a a a q ; 3 2 2 2 < X . X 3 . 0 X 3 i 2 . & : : X < X X 6 6 q X > X     . 9 8 9 9 8 - 4       . ; q ",
"> . o g 9 t 3 > > > ~ 3 3 6 O f O l X 3 3 3 ~ 4 . X > < ~ ~ > 3 < p X . . X . ~ ~ . o 4   0 X 3 X . X ; - 9 9 8 R W 4 . . > 3 X ",
"> X X g 9 t X . X 2 2 ` ` d q q q X X X ; X .   X 3 2 2 < < i 2 2 2 3 X X ; X . X ; .   . . X > X X 3 > X ; H ..} < 4 g t $.3 3 ",
"2 2 3 r = = ; o X 2 2 2 = 3 X X X . . X 3 > X : ~ < < 2 i 2 2 i 2 2 3 > 3 3 q 5 q 3 ; X X X 3 3 ; X X X X ; } } r R X * = = t t ",
"~ ) < -.9 8 3 5 q > > 3 9 ; o o o     . X X X . 0 ~ ~ ~ > ~ > > > ~ X o 4 X 6 a 6 ; X X X X X X > > > > 3 3 $.` 2 2 X L 8 = = 8 ",
"4 ~ 0 g I 9 X w Z d X ; t - g g g ;.. X . :   . . X .   z o X X . 4 4       5 a q X . X .     ~ < 1 1 Q Q [ 3 ` 3 < ; L 8 = = 9 ",
"; ; X g 9 t q 5 q > X ; } 8 9 9 * I - ; 3 X X X > > X z k o X X . . X X X . u X d X . . . . 4 < i 1 Q A 7 Y 4 4   l ; 9 9 ] H 8 ",
"> X X X - t X X ; X o . t t t - g 9 9 ; > ; 3 > 3 r X z k q . : : . 3 > > X - 9 > X X X X X X > 3 > d 7 7 5     & & : I 9 H H = ",
"3 X . X ; t r - r X   . 9 ; 3 . h - 8 r > > > > r = $.q q > : y & . 3 > > - r - X o . X X X X X ; X q q q o . X . : : * 8 = = 8 ",
"X > < > ; - ; - 3 X   . * g . o X 9 8 t ) p 1 > - 8 r > > 3 u $ y   > > X 9 8 - o     . X 3 X X ; X . 4 . . . o l : . ; t = ..t ",
"~ < 2 3 4 C q ; 3 X : . 3 . 4 . ; t - -.< 2 2 X j I - X 3 3 : y y : > d 5 X r - 5 5 5   . X 3 3 X .       h . o X 0   o 3 8 t ; ",
"4 ~ > 1 7 a 6 q > X l . > ~ ~ > 3 - X X 2 3 3 . $ ^ : X 3 3 X   & : > d 7 D > r 5 O 6 o   X X 3 X . q o   o h o > < h . X r t 3 ",
". X > 7 7 7 a 6 > X : X < < < < X r 3 ~ 3 . . u $ / . X X X X X : . 3 d 7 7 3 t q O 5 o . X ; X X . 5 5 w l   . 3 r * h 0 - t ; ",
"; ; ; d D 7 a 6 X X : 4 n < ) ) < 2 ) #.0 & & y / :.& 0 X X X > . . X 4 V 6 r J 0 5 5 X X X X . 4 4 C 5 Z h h 0 r 9 K * * 9 t . ",
"g 9 t 3 A D a 6 X X . ~ ) > 1 1 Q Q Q 3 X . l y _ y u . . l : : : : :   X.6 r - o 5 o X 3 X .     4 . X . * E E 9 I * U 8 U 9 g ",
"h g r r d T a 6 X X 0 < 2 Q D D D a 6 d 3 > : & : : . X & $ v y $ $ $ b O d - ; 6 a 5 X 3 X .     X 3 3 9 9 I I * g g - - 9 t r ",
"o   0 X 6 D a 5 . X < 2 1 2 1 1 6 e >.4 < 3 X X 3 X o q & y v y y y y x a 7 > > 7 a 5 3 3 X .   . X 3 t t t U 9 . X .   . ; 3 r ",
"q q 4   o 7 6 5 X 3 > 3 t $.` r q Z Z 4 > 3 > - 9 ; 6 6 l : : & u : . o Z 6 X X 6 a q r r ; .   . X 3 - - r 8 I . o . . X X > ; ",
"d X . h q d 6 4 ~ 3 X ; 9 r X X 6 6 o . X > > ; 9 ; d 6 z   l : : X X l 5 6 X o O O 6 X ; 3 X X . . X 3 3 3 t - * g X X ; 3 3 X ",
"o : B ;.q 7 5 h ; - X q o X > > d > > X 3 r 3 ; 9 r X o     . X X . . . 7 7 > X Z w 6 g - ; X 3 < ~ . X 3 ~ ~ 3 - - ; 3 X X 3 X ",
"l g 9 - X d 5 X - - . d q X . X X 3 3 X r t 3 X   X . ; . & : X > . X 3 1 Q 1 > . x o ; I ; > > < < > X . . : . ; 3 3 3 X X 3 X ",
"X ; ; X q 7 6 q - K ; d d X 0 X 3 X X X . o q 6 k z g - : $ u X X . X > < < i 3 X u : X ; ; X 3 i < > . . : . X ; X X X 3 ; X X ",
"> 3 X o O a a 6 - g g d q X X X X . 4 X q 6 O s 5 o ; 3 : y y . . . X ~ 0 X X 3 . y & o X . X 3 X 0 > .     . > X . . X X B X 3 ",
"3 3 X z X.a 7 6 3 - g q o X ; .       . 4 5 O s 6 X t $.X & & l   .   c *.y & > . &   . > X . X .   . . . X ~ ~ :   o q o   X X ",
"4 . . o k O 6 d 3 ; X X o   . * ; ; ; X   X q 5 q r 8 r X : l   . X   y b b & X ; ; g g X . X X X . . 0 X 3 <     z C 6 a 5 X X ",
"4     . X q q X X X X X .   h I 8 8 r X . X > q ; r U - X .   4 X q q l x e o - t 9 I K . . X X 3 X X < < i > 4 l w 5 a F 6 X X ",
"X .   4 ~ > X . . X . o 5 o g 9 8 t t ; . X d X - r - g X o 5 o q 7 d X z z X 8 8 I E g .     X 3 3 3 < ~ ) > 4 z Z O O X.O o . "
};
