/* XPM */
static char *_cd16eadafba401bcc045bb2bc59101dQi7amr3zRNnUloPx[] = {
/* columns rows colors chars-per-pixel */
"64 64 139 2 ",
"   c #010101",
".  c #0A0504",
"X  c #0A0508",
"o  c #0F0908",
"O  c #100302",
"+  c #150907",
"@  c #130C09",
"#  c #1E0C0A",
"$  c #16110B",
"%  c #1C130C",
"&  c #210E09",
"*  c #21160E",
"=  c #2B120C",
"-  c #3D170A",
";  c #3C190D",
":  c #2C1D12",
">  c #311F15",
",  c #3B1913",
"<  c #342014",
"1  c #3E291C",
"2  c #441B0E",
"3  c #481D0F",
"4  c #441D12",
"5  c #422B1C",
"6  c #4A2D1E",
"7  c #5B2513",
"8  c #49321C",
"9  c #672C1C",
"0  c #692C1A",
"q  c #7D331B",
"w  c #543C21",
"e  c #693720",
"r  c #7E3621",
"t  c #614427",
"y  c #62462A",
"u  c #6F4E2C",
"i  c #724E2D",
"p  c #75502D",
"a  c #755234",
"s  c #785233",
"d  c #82351D",
"f  c #933E1E",
"g  c #8D3B23",
"h  c #943A21",
"j  c #9B3F25",
"k  c #964324",
"l  c #984223",
"z  c #944F29",
"x  c #94592F",
"c  c #825633",
"v  c #855B33",
"b  c #895F36",
"n  c #B24621",
"m  c #AD5429",
"M  c #B5552A",
"N  c #AB5833",
"B  c #886035",
"V  c #8C6038",
"C  c #936336",
"Z  c #9C6D3C",
"A  c #A16D3C",
"S  c #AC753E",
"D  c #D2542A",
"F  c #DC562A",
"G  c #D95B2B",
"H  c #EB5724",
"J  c #E45A27",
"K  c #ED5B26",
"L  c #E65B29",
"P  c #EB5B2A",
"I  c #F45724",
"U  c #F15A25",
"Y  c #F45D28",
"T  c #DB6A31",
"R  c #EF6127",
"E  c #EE6329",
"W  c #EE6D2F",
"Q  c #F16229",
"!  c #F06B2D",
"~  c #F3702E",
"^  c #E46631",
"/  c #F26D32",
"(  c #E37436",
")  c #EF7131",
"_  c #E17439",
"`  c #E8793B",
"'  c #F37132",
"]  c #F37C36",
"[  c #F47D3A",
"{  c #966A40",
"}  c #9F6D42",
"|  c #A16D42",
" . c #A97342",
".. c #AE7A43",
"X. c #B07742",
"o. c #B17B42",
"O. c #BC7D43",
"+. c #BE7F48",
"@. c #F5833C",
"#. c #BD8047",
"$. c #C18245",
"%. c #CE894B",
"&. c #D38C4B",
"*. c #DA944C",
"=. c #DD994C",
"-. c #DB9751",
";. c #F68D42",
":. c #F98840",
">. c #E1954E",
",. c #E49D4D",
"<. c #ED9E4D",
"1. c #F79244",
"2. c #FB9346",
"3. c #F2904C",
"4. c #FB9A4A",
"5. c #FD9F4D",
"6. c #E39A53",
"7. c #E69E51",
"8. c #EC9B51",
"9. c #E99F52",
"0. c #ED9C52",
"q. c #FDA14B",
"w. c #FFA74B",
"e. c #FDA34E",
"r. c #F8A44E",
"t. c #FFA44F",
"y. c #FFA94E",
"u. c #FFA94F",
"i. c #EDA052",
"p. c #F6A251",
"a. c #F4A155",
"s. c #F8A251",
"d. c #FFA750",
"f. c #FCA452",
"g. c #F9A655",
"h. c #FFA850",
"j. c #FFA951",
"k. c #FFA952",
"l. c #FFA853",
/* pixels */
"      = G K K U K K K K K U R K K K K U K K K K K K K K K K U K K K K K K K K K K K K K K K K K K U K K U K K K U K U R n O     ",
"      = F U U U U U U U U U U U U U U U U U U U U U U U U U U U U U U K U U U U U U U U U U U U U U U U U U U U U U U U n .     ",
"      = F U U K U U K U U U U U K U U K U U U U U U U U K U U K U K U U U U U U K U K U U K U K U K U U U K K U U K K U n .     ",
"; 2 ; 7 T ! ! W ~ ! ~ W ! W ~ W ! ! W W ~ W ~ W W ~ ~ ! W ~ ! W ~ ~ ! ~ W ~ ! ! ~ ! ! W ! ~ ! ~ ! ) ~ ! W ~ ! W ~ ~ ! ~ M X     ",
"J J L ^ 4.f.t.t.e.t.e.t.w.r.q.t.t.t.t.t.r.t.t.t.q.w.t.t.r.t.t.t.r.t.t.t.w.t.r.t.t.e.e.t.e.t.t.t.w.q.t.e.e.e.t.e.e.e.t.t.S .     ",
"H U U ! 5.t.t.t.t.t.t.t.w.t.t.t.t.y.t.t.t.t.t.t.w.w.t.t.t.t.t.t.t.t.t.t.w.t.w.t.y.t.t.t.t.t.t.h.t.t.t.y.t.t.t.t.t.h.t.y.$..     ",
"H U U E q.t.t.y.t.y.y.y.t.t.t.y.t.t.y.t.t.t.t.t.r.t.t.t.t.t.t.t.t.t.f.t.t.t.t.t.t.t.t.t.t.t.t.t.t.t.y.f.t.y.h.h.y.t.y.y.O..     ",
"H U U / q.t.f.r.&.%.&.&.s.t.y.t.t.t.t.t.t.t.t.y.t.t.t.t.t.t.t.y.t.t.t.t.t.t.t.t.t.t.y.t.t.t.t.h.t.t.t.y.0.&.%.%.*.t.t.h.O.o     ",
"H U U ! t.t.h.=.< @ @ : *.y.t.t.t.f.t.y.t.t.t.t.h.t.y.t.y.t.t.t.t.y.t.t.t.t.t.t.t.h.t.t.t.y.t.t.t.h.h.h. .+ @ o t g.t.h.O..     ",
"H U U W t.t.f.*.*     % *.t.t.t.t.t.t.t.t.t.t.t.t.t.f.t.t.t.t.t.t.t.t.t.t.t.t.y.y.t.f.t.t.t.t.t.f.f.h.h.|       w g.t.h.O..     ",
"H U U R 5.t.y.=.%     $ *.y.t.t.y.t.t.t.h.h.f.t.h.h.t.t.t.y.t.f.f.y.y.t.t.y.y.t.t.t.t.t.t.f.t.t.t.h.f.h.}       w g.f.y.#..     ",
"H U I W e.t.t.6.8 > > 5 >.f.y.t.t.t.t.t.4.4.4.4.4.4.4.4.4.4.4.4.5.4.4.4.4.4.4.2.q.y.t.t.t.t.h.t.t.f.t.f...> < : p s.y.y.O..     ",
"H U U ! q.t.t.r.i.7.7.i.f.t.t.t.t.t.t.t.) E E E Q E Q Q Q Q Q Q R R Q Q R E Q R @.y.t.t.t.t.y.t.t.t.t.h.a.7.7.7.i.t.t.y.O..     ",
"H U I ! e.t.t.t.t.t.t.h.f.t.t.y.f.f.t.t.W I U U U U U U U U U Y U U U U U U K U @.y.h.t.t.f.t.t.t.t.t.t.h.y.t.t.y.t.t.y.O..     ",
"H U U R q.t.t.t.t.t.t.t.t.t.t.t.f.y.t.f.W I U U Y U Y U U U Y U Y U U U U Y U U @.h.t.y.t.t.t.t.t.t.t.t.t.t.t.t.t.t.y.y.#..     ",
"H U U W r.t.h.t.t.t.t.t.f.t.h.t.4.4.4.2.! K U U F D D D D D D D D D D D J U U U [ 4.4.4.t.t.t.t.y.t.t.f.y.t.t.f.t.t.t.y.O..     ",
"H U U ! t.t.t.t.t.t.t.t.t.f.t.e.W E Q E U U U P 7 & & & & & # & & & & & l Y K U Y Q E K @.f.t.t.t.t.y.h.t.f.t.y.t.t.t.y.O..     ",
"H U U R e.e.t.t.h.t.h.t.t.t.t.e.! U U U U U U L 3                       g U U U U U U U [ h.h.t.t.t.t.t.t.t.t.t.t.t.f.h.O..     ",
"H U U ! e.t.t.t.t.t.t.t.t.t.t.t.! U U U U U U L 3                       h Y U U U U U U [ y.t.q.y.t.t.t.t.h.h.t.h.t.h.h.O..     ",
"H U U ! q.t.t.t.t.h.t.t.t.y.t.t.! I U U U U U L 3       $ * * % % % % * l Y U U U K U U ` 6.,.6.p.t.t.f.t.t.t.t.t.t.t.h.O..     ",
"H U U ! e.t.t.t.h.t.t.f.t.t.e.e.! U U U U U U K 3     . { =.*.*.*.*.*.*.( U U U U U U Y k : : : v h.t.h.f.t.t.t.t.t.h.h.O..     ",
"H U U Q 5.t.t.t.t.t.t.t.t.t.t.5.! U U R U U U J 3       o.h.t.t.f.h.y.r.] U U U U U U Y d       u h.t.t.t.t.h.t.h.t.t.h.O..     ",
"H U U ! e.t.t.t.y.t.t.y.t.t.t.e.! I U U U U U K 3     . ..h.t.t.t.t.t.t.] U U U U Y U Y d       u l.h.t.y.t.f.t.t.t.y.h.#..     ",
"H U U ! q.t.t.y.t.t.t.t.t.t.t.e.! U U U U U U L 4       o.h.f.t.t.f.t.y.] U U U U U U Y d       u l.h.f.t.t.t.t.t.t.t.y.O..     ",
"H U U ! 5.t.t.t.t.y.t.f.f.t.t.t.! U I U U U U L 3       o.y.t.t.t.y.y.t.] U U U U U U Y d       p h.t.t.h.t.t.h.f.t.f.y.O..     ",
"H K U Q e.t.t.t.t.t.t.t.t.t.t.t.! U U U U U U H 3     . o.f.t.t.t.t.t.t.] U U U U Y U Y d       u h.y.t.t.t.t.t.t.t.t.h.O..     ",
"H U U ! q.t.h.t.t.t.t.t.t.t.t.e.! U U U U U U P 4       o.y.t.t.t.f.t.t.] U U U U U U Y d       u l.f.t.t.t.t.t.t.t.t.h.O..     ",
"H U U ! e.t.t.t.f.t.t.y.t.t.t.t.! U R R L L J G 4     . o.y.t.t.t.t.t.t.] U U U U U U Y d       u l.t.t.t.h.h.t.y.t.h.h.O..     ",
"H U U ! 5.t.t.t.t.t.t.t.t.h.h.t.2.2.2.3.e - ; ; +       X.l.t.t.[ ! W ! E U U U U U K Y d       u l.h.h.t.t.h.t.t.t.t.h.O..     ",
"H U U ! 5.t.t.t.y.t.t.h.t.t.t.t.y.y.t.a.1             X X.h.t.e.' I U U U K U U U U U Y d       p l.h.f.t.h.t.t.h.t.t.y.O..     ",
"H U K Q q.t.t.t.t.t.h.t.t.t.t.t.t.y.y.a.5               X.h.h.f.] K U U U U U U U U Y Y d       u l.t.t.t.t.t.t.t.t.t.y.#..     ",
"H U U ! q.t.t.t.t.t.t.t.f.t.t.y.t.t.t.a.6 . . . o o . o X.l.f.f.' U U U P P L H P P L P r       u h.t.t.t.t.f.t.h.t.t.y.#..     ",
"K U U ! t.t.t.t.h.t.h.t.t.t.t.t.t.t.t.f.&.#.+.#.+.#.O.#._ / / / E K U P h 4 4 4 5 4 2 4 =       u h.h.h.t.t.t.t.t.y.h.h.O..     ",
"H U U ! q.f.t.y.t.t.t.t.t.f.t.h.t.t.t.f.h.f.h.h.h.h.h.t./ H U U U U U Y 0                       u h.h.h.t.h.f.t.t.t.h.h.O..     ",
"H U U Q e.t.t.t.t.t.t.t.t.h.t.t.t.t.y.e.f.f.h.t.f.h.f.f.' U U U U U U Y 9                       i l.f.t.t.t.t.t.t.t.t.h.O..     ",
"H U U ! q.t.t.t.h.t.h.t.t.t.t.h.t.t.t.f.e.h.t.t.f.h.h.t./ U U U U U U U 9       . . . . . . X   i h.y.f.t.t.h.t.h.t.t.h.O..     ",
"H U U W q.t.t.f.t.f.t.t.t.h.t.t.y.t.t.h.t.t.t.t.e.t.t.t./ U U U U U U P 0       y #.....o.o.o...&.h.t.t.t.f.f.t.f.t.t.h.O..     ",
"H U U ! q.t.t.t.t.t.y.t.t.t.t.t.t.t.t.t.y.t.t.h.f.t.t.t./ K U U U U U Y 9       V h.g.h.h.h.t.h.h.t.h.t.t.t.t.t.t.y.t.h.O..     ",
"H U U ! e.t.t.t.t.t.t.t.t.y.f.t.t.f.t.h.t.t.t.t.t.t.t.t.' U U U U U U Y 0       B h.t.f.y.h.y.h.t.t.y.t.t.t.t.t.t.t.t.y.#..     ",
"H U U Q e.t.t.h.t.h.t.t.t.t.t.t.t.t.t.t.f.t.t.y.t.t.f.e.' Y P U P Y Y P 9       B y.t.t.t.t.t.t.t.t.t.t.y.h.t.h.t.y.t.y.O..     ",
"H U U Q e.t.t.t.t.t.f.t.t.y.h.t.t.t.t.f.t.t.y.t.t.t.h.t.1.;.;.;.z 7 7 7 =       B l.l.f.t.t.t.t.t.y.f.y.t.t.t.t.t.t.h.h.O..     ",
"H U U W e.e.t.t.t.h.t.t.t.t.t.t.t.y.t.t.t.t.t.t.t.t.t.t.f.y.h.h.y               B l.t.h.t.h.f.t.t.t.t.t.t.h.t.t.h.t.h.h.O..     ",
"H K U Q t.t.t.t.t.t.t.t.t.t.t.t.t.t.t.h.t.t.h.t.t.h.f.t.y.t.t.g.y               B h.h.e.t.t.t.t.t.t.t.t.f.t.t.h.t.t.f.h.O..     ",
"H U U ! q.t.t.t.t.t.h.t.h.t.h.t.t.h.t.t.t.h.t.t.t.t.t.t.h.f.y.h.y   .   X       B h.t.f.t.y.t.t.t.h.y.t.t.t.t.t.t.t.t.y.O..     ",
"H U U R e.t.t.t.h.t.t.h.t.h.t.t.t.t.t.t.t.t.t.f.t.t.t.e.@.] ] ] M g f f x Z Z Z &.f.t.t.t.f.t.f.t.f.t.t.t.y.t.h.t.t.t.h.O..     ",
"H U U ! 5.t.t.t.t.t.t.t.t.t.t.h.f.t.h.t.h.t.t.t.t.t.y.h.) I K U Y Y Y Y @.f.h.h.y.y.t.h.t.t.t.t.t.t.h.t.t.t.t.t.t.f.y.h.O..     ",
"H U U W e.t.t.t.f.t.h.t.t.h.t.t.t.t.t.h.h.t.t.t.t.t.t.f.) K U U U U U K @.h.h.f.t.f.h.t.t.t.t.t.t.t.t.t.f.t.t.h.h.t.t.h.#..     ",
"H U U Q e.y.t.t.t.t.t.t.t.t.t.y.t.t.t.t.t.t.t.y.t.t.t.e./ U U U U Y U I @.k.h.l.h.h.t.t.y.t.t.h.t.h.t.t.t.t.t.t.t.t.t.y.O..     ",
"H U U ! q.t.t.t.t.f.y.t.t.t.t.t.t.h.t.t.h.t.t.t.t.t.t.t.' U U U U U Y P N a s a $.h.t.t.t.h.t.h.t.t.t.f.f.t.t.f.t.t.t.f.O..     ",
"H K U ! t.t.t.t.t.t.f.h.t.h.h.t.t.t.t.t.t.t.y.t.f.t.t.h./ K U U U U U Y 9       V h.t.t.t.t.t.t.h.t.t.t.t.h.h.e.t.t.h.h.O..     ",
"H U U ! q.t.t.t.t.y.f.h.t.t.t.t.t.h.y.t.f.t.h.t.t.t.t.t.' U P U U Y Y Y 9       B h.t.y.t.t.t.t.t.f.t.y.h.f.t.h.t.h.f.h.O..     ",
"H U U Q q.y.f.f.h.h.h.h.t.f.t.t.t.t.t.t.t.t.t.t.t.y.t.t./ U U U U Y Y Q 0       B h.t.t.t.f.t.f.t.t.h.h.h.l.h.h.y.h.t.y.O..     ",
"H K U ! 5.t.h.<.C v v V <.t.t.y.t.t.t.t.h.t.h.t.f.t.t.t.;.[ [ [ m q q g ,       B l.h.h.t.h.t.t.y.t.f.h.&.v v v S g.y.h.O..     ",
"H U U Q q.t.h.=.*     # *.y.t.h.h.t.f.t.t.t.t.t.t.t.t.y.y.t.h.g.y               B l.h.f.t.t.t.t.t.t.h.h.|       w g.t.h.O..     ",
"H U U ! 5.t.t.=.*     % *.h.t.t.t.t.t.t.t.t.t.t.t.t.t.t.t.t.y.f.t               b h.f.f.y.t.f.t.t.t.y.h.|       w h.t.y.#..     ",
"K U U ! e.t.t.*.%     @ *.h.t.t.t.y.t.t.f.t.f.t.h.t.t.f.t.t.h.h.t               b y.t.t.t.t.t.t.t.h.t.h.|       w g.t.y.O..     ",
"H Y U ! e.h.h.0.v i p c 8.h.f.t.t.t.h.t.t.y.h.t.t.t.f.h.t.t.f.h. .i i i s i i i O.l.f.t.t.t.t.y.t.f.f.l.%.i i i A s.h.h.O..     ",
"H U Y Q 5.f.t.f.h.h.l.l.h.s.t.t.f.f.f.t.t.t.f.f.t.t.f.h.t.t.f.h.l.h.l.l.l.l.l.l.h.f.f.t.t.h.f.f.y.f.f.h.l.l.l.l.h.f.h.h.O..     ",
"H Y U ! e.f.h.f.h.f.h.f.h.h.f.y.h.h.f.h.f.h.f.h.f.y.h.h.t.t.h.f.h.f.f.h.f.l.g.f.h.l.f.h.f.h.h.f.f.f.h.f.l.f.f.h.h.h.h.h.#.X     ",
"K U Y ! t.t.h.h.l.l.h.h.l.h.h.f.l.h.h.h.y.h.h.l.h.h.l.h.h.h.h.h.l.h.l.l.l.l.l.l.h.h.y.h.y.h.l.l.h.y.l.l.l.l.h.h.h.h.h.l.+.o     ",
"f f f l Z Z Z Z Z Z Z Z Z Z Z Z Z Z Z Z Z Z Z Z Z Z Z Z Z Z Z Z Z Z Z Z Z Z Z Z Z Z Z Z Z Z Z Z Z Z Z Z Z Z Z Z Z Z Z Z a X     ",
"  .                                                                                                                             ",
"                                                                                                                                ",
"                                                                                                                                "
};
