/* XPM */
static char *_26b78a3204e4b3a8371074976b7f7f42w5ZR1LU2Rq4z2xT[] = {
/* columns rows colors chars-per-pixel */
"64 64 42 1 ",
"  c None",
". c #FC4C18",
"X c #FC4D18",
"o c #FC4E19",
"O c #F9561C",
"+ c #F9571D",
"@ c #F75E20",
"# c #0A8900",
"$ c #0C8A00",
"% c #27961C",
"& c #27961D",
"* c #2B9820",
"= c #E88F37",
"- c #E59739",
"; c #E6973B",
": c #E89138",
"> c #E5983A",
", c #E5983B",
"< c #E6983B",
"1 c #E5993C",
"2 c #E6993C",
"3 c #E69A3E",
"4 c #E7A24F",
"5 c #E7A350",
"6 c #E7A351",
"7 c #E7A352",
"8 c #E8AD65",
"9 c #EFDDC8",
"0 c #D6E5D4",
"q c #D9E6D7",
"w c #F0E7DB",
"e c #F0E7DC",
"r c #F0E7DD",
"t c #F0E8DE",
"y c #EEF0EE",
"u c #F1F0EF",
"i c #F1F1F1",
"p c #F2F1F1",
"a c gray95",
"s c #F2F2F3",
"d c #F3F2F3",
"f c #F2F3F4",
/* pixels */
"                aaaaaaaaaaaaaaaaaaaaaaaaaaaaaaaa                ",
"                aaaaaaaaaaaaaaaaaaaaaaaaaaaaaaaa                ",
"                aaaaaaaaaaaaaaaaaaaaaaaaaaaaaaaa                ",
"                aaaaaaaaaaaaaaaaaaaaaaaaaaaaaaaa                ",
"        aaaaaaaaaaaaaaaaaaaaaaaaaaaaaaaaiaaaaaaaaaaaaaaa        ",
"        aaaaaaaaaaaaaaaaaaaaaaaaaaaaaaaafiaaaaaaaaaaaaaa        ",
"        aaaaaaaaiifaafaffisifififiaadifsisfaafafaaaaaaaa        ",
"        aaaaaaautwtwwtwttwrrrrrwrrrrrwrrwwtwwtwtaaaaaaaa        ",
"    aaaaaaaaaaat86666666666666666666666666666668rfaaaaaaaaaa    ",
"    aaaaaaaaaaar6-->>>>>>>>>>>>---,--,2->>>>,--6raaaaaaaaaaa    ",
"    aaaaaaaaaafr6-,22222222222222222222222222,>6raafafafaaaa    ",
"    aaaurrrrrrr96,2,:==================:===:,1>69rwrwrwtuaaa    ",
"aaaaaafr86666666222:@+++O+++++++OO++++++++O@:2>266666668rfaaaaaa",
"aaaaaaar4->>>>>--22=+......................O:221-->>>>-4raaaaaaa",
"aaaaaaaw6>222222222=+.....O..OO.O...O......+=122222222-6waaaaaaa",
"aaaaaaat6>222222222:+.O..O........O...O.O..+=222222222>6rfaaaaaa",
"aaaaaaar6>>22222221=+..O.........O..O..OO..+=122222222-6raaaaaaa",
"aaaaaaar6>22222>222=+....OO..OO....O.......+=22222222226rfaaaaaa",
"aaaaaaar6--->>>>222:O......................+=12,-2>>---6wfaaaaaa",
"aaaaaaat86667774222:@O++++++++++++++OO++OO+@:1,266666648raaaaaaa",
"    aaaurrwrrrr94>2>:===========:=======:==:-2-69ttwwtrruaaa    ",
"    aaaafaafaafr6>212212111122222222111122122226tafaiisfaaaa    ",
"    aaaaaaaaaafw6>>>>>>>>>2--,-->--2>>>>>>>>---6wfaaaaaaaaaa    ",
"    aaaaaaaaaaar84666666666666666666666666666668taaaaaaaaaaa    ",
"        aaaaaaautwtwtwtttrrrrrrrrrrwrrrwrwrrrwwruaaaaaaa        ",
"        aaaaaaaaafaaafiiiiaaifaafafaaafafaaafafaaaaaaaaa        ",
"        aaaaaaaaaaaaaaaaaaaaaaaaaaaaaaaaaaaaaaaaaaaaaaaa        ",
"        aaaaaaaaaaaaaaaaaaaaaaaaaaaaaaaaaaaaaaaaaaaaaaaa        ",
"                aaaaaaaaaaaaaaaaaaaaaaaaaaaaaaaa                ",
"                aaaaaaaaaaaaaaaaaaaaaaaaaaaaaaaa                ",
"                aaaaaaaaaaiaddddddadaiaaaaaaaaaa                ",
"                aaaaaaaaaaayq000000qyaaaaaaaaaaa                ",
"                            &&&&&&&*                            ",
"                            $#######                            ",
"                            $$$$$$$$                            ",
"                            $$$$$$$$                            ",
"$$$$$$$$$$$$                $$$$$$$$                $$$$$$$$$$$$",
"$$$$$$$$$$$$                $$$$$$$$                $$$$$$$$$$$$",
"$$$$$$$$$$$$                $$$$$$$$                $$$$$$$$$$$$",
"$$$$$$$$$$$$                $$$$$$$$                $$$$$$$$$$$$",
"    $$$$$$$$$$$$            $$$$$$$$            $$$$$$$$$$$$    ",
"    $$$$$$$$$$$$            $$$$$$$$            $$$$$$$$$$$$    ",
"    $$$$$$$$$$$$            $$$$$$$$            $$$$$$$$$$$$    ",
"    $$$$$$$$$$$$            $$$$$$$$            $$$$$$$$$$$$    ",
"    $$$$$$$$$$$$$$$$        $$$$$$$$        $$$$$$$$$$$$$$$$    ",
"    $$$$$$$$$$$$$$$$        $$$$$$$$        $$$$$$$$$$$$$$$$    ",
"    $$$$$$$$$$$$$$$$        $$$$$$$$        $$$$$$$$$$$$$$$$    ",
"    $$$$$$$$$$$$$$$$        $$$$$$$$        $$$$$$$$$$$$$$$$    ",
"        $$$$$$$$$$$$$$$$    $$$$$$$$    $$$$$$$$$$$$$$$$        ",
"        $$$$$$$$$$$$$$$$    $$$$$$$$    $$$$$$$$$$$$$$$$        ",
"        $$$$$$$$$$$$$$$$    $$$$$$$$    $$$$$$$$$$$$$$$$        ",
"        $$$$$$$$$$$$$$$$    $$$$$$$$    $$$$$$$$$$$$$$$$        ",
"        $$$$$$$$$$$$$$$$    $$$$$$$$    $$$$$$$$$$$$$$$$        ",
"        $$$$$$$$$$$$$$$$    $$$$$$$$    $$$$$$$$$$$$$$$$        ",
"        $$$$$$$$$$$$$$$$    $$$$$$$$    $$$$$$$$$$$$$$$$        ",
"        $$$$$$$$$$$$$$$$    $$$$$$$$    $$$$$$$$$$$$$$$$        ",
"            $$$$$$$$$$$$$$$$$$$$$$$$$$$$$$$$$$$$$$$$            ",
"            $$$$$$$$$$$$$$$$$$$$$$$$$$$$$$$$$$$$$$$$            ",
"            $$$$$$$$$$$$$$$$$$$$$$$$$$$$$$$$$$$$$$$$            ",
"            $$$$$$$$$$$$$$$$$$$$$$$$$$$$$$$$$$$$$$$$            ",
"                        $$$$$$$$$$$$$$$$                        ",
"                        $$$$$$$$$$$$$$$$                        ",
"                        $$$$$$$$$$$$$$$$                        ",
"                        $$$$$$$$$$$$$$$$                        "
};
