/* XPM */
static char *a0c51252d0114d63bf3fbb5a615d5a66QShMK3GpftwmBwxm[] = {
/* columns rows colors chars-per-pixel */
"64 64 31 1 ",
"  c None",
". c #F73700",
"X c #F83800",
"o c #BE6D00",
"O c #AE7E00",
"+ c #AF7F00",
"@ c #B37A00",
"# c #CE5F00",
"$ c #EA4500",
"% c #E54900",
"& c #F84C0D",
"* c #F94C0D",
"= c #F95211",
"- c #C16D00",
"; c #FB7427",
": c #BD850D",
"> c #C28711",
", c #CC8C1A",
"< c #D18E1F",
"1 c #DC9327",
"2 c #E1952C",
"3 c #FC8130",
"4 c #FD8835",
"5 c #FD8E39",
"6 c #EB9A35",
"7 c #EE9B38",
"8 c #F09C39",
"9 c #FE9C42",
"0 c #FAA042",
"q c #FFA246",
"w c #FFA347",
/* pixels */
"                    XXXXXXXXXXXXXXXXXXXX                        ",
"                    XXXXXXXXXXXXXXXXXXXX                        ",
"                    XXXXXXXXXXXXXXXXXXXX                        ",
"                    XXXXXXXXXXXXXXXXXXX.                        ",
"                XXXXXXXXXXXXXXXXXXXXXXXXXXXXXXXXXXXX            ",
"                XXXXXXXXXXXXXXXXXXXXXXXXXXXXXXXXXXXX            ",
"                XXXXXXXXXXXXXXXXXXXXXXXXXXXXXXXXXXXX            ",
"                XXXXXXXXXXXXXXXXXXXXXXXXXXXXXXXXXXXX            ",
"                +++++++++++>wwwwwww6+++>wwww                    ",
"                +++++++++++>wwwwwww6+++>wwww                    ",
"                +++++++++++>wwwwwww6+++>wwww                    ",
"                +++++++++++>wwwwwww6+++>wwww                    ",
"            +++>www6+++>wwwwwwwwwww6+++>wwwwwwwwwwww            ",
"            +++>www6+++>wwwwwwwwwww6+++>wwwwwwwwwwww            ",
"            +++>www6+++>wwwwwwwwwww6+++>wwwwwwwwwwww            ",
"            +++>www6+++:6668wwwwwww8>>>,6667wwwwwwww            ",
"            +++>www6+++++++>wwwwwwwwwww6+++>wwwwwwwwwwww        ",
"            +++>www6+++++++>wwwwwwwwwww6+++>wwwwwwwwwwww        ",
"            +++>www6+++++++>wwwwwwwwwww6+++>wwwwwwwwwwww        ",
"            +++:6662>>>>>>><wwwwwww96661+++:66666667wwww        ",
"            +++++++>wwwwwwwwwwwwwww6+++++++++++++++O            ",
"            +++++++>wwwwwwwwwwwwwww6+++++++++++++++O            ",
"            +++++++>wwwwwwwwwwwwwww6+++++++++++++++O            ",
"            +++++++>wwwwwwwwwwwwwww6++++++++++++++++            ",
"                    wwwwwwwwwwwwwwwwwwwwwwwwwwww                ",
"                    wwwwwwwwwwwwwwwwwwwwwwwwwwww                ",
"                    wwwwwwwwwwwwwwwwwwwwwwwwwwww                ",
"                    wwwwwwwwwwwwwwwwwwwwwwwwwwww                ",
"                +++++++-XXX%++++++++++++                        ",
"                +++++++-XXX%+++++++++++O                        ",
"                +++++++-XXX%+++++++++++O                        ",
"                +++++++-XXX%+++++++@--oo                        ",
"            +++++++++++-XXX%+++++++-.XX%++++++++++++            ",
"            +++++++++++-XXX%+++++++-XXX%++++++++++++            ",
"            +++++++++++-XXX%+++++++-XXX%++++++++++++            ",
"            +++++++++++-XXX$-------#XXX%++++++++++++            ",
"        +++++++++++++++-XXXXXXXXXXXXXXX%++++++++++++++++        ",
"        +++++++++++++++-XXXXXXXXXXXXXXX%++++++++++++++++        ",
"        +++++++++++++++-XXXXXXXXXXXXXXX%++++++++++++++++        ",
"        +++++++++++++++-XXXXXXXXXXXXXXX%++++++++++++++++        ",
"        wwwwwww6+++-XXX=www4XXXXXXX=www4XXX%+++>wwwwwwww        ",
"        wwwwwww6+++-XXX=www4XXXXXXX=www4XXX%+++>wwwwwwww        ",
"        wwwwwww6+++-XXX=www4XXXXXXX=www4XXX%+++>wwwwwwww        ",
"        wwwwwww6+++-XXX=www4XXXXXXX=www4XXX%+++>wwwwwwww        ",
"        wwwwwwwwwww4XXXXXXXXXXXXXXXXXXXXXXX=wwwwwwwwwwww        ",
"        wwwwwwwwwww4XXXXXXXXXXXXXXXXXXXXXXX=wwwwwwwwwwww        ",
"        wwwwwwwwwww4XXXXXXXXXXXXXXXXXXXXXXX=wwwwwwwwwwww        ",
"        wwwwwww9444;XXXXXXXXXXXXXXXXXXXXXXX&4445wwwwwwww        ",
"        wwwwwww4XXXXXXXXXXXXXXXXXXXXXXXXXXXXXXX=wwwwwwww        ",
"        wwwwwww4XXXXXXXXXXXXXXXXXXXXXXXXXXXXXXX=wwwwwwww        ",
"        wwwwwww4XXXXXXXXXXXXXXXXXXXXXXXXXXXXXXX=wwwwwwww        ",
"        wwwwwww;XXXXXXXXXXX.XXXXXXX.XXXXXXXXXXX&wwwwwwww        ",
"                XXXXXXXXXXXX        XXXXXXXXXXXX                ",
"                XXXXXXX.XXXX        XXXXXXXXXXXX                ",
"                XXXXXX..XXXX        XXXXXXXXXX..                ",
"                XXXXXX..XXXX        XXXXXXXXXX..                ",
"            :OOO+++++++O                ++++++++++++            ",
"            O:OO+++++++O                ++++++++++++            ",
"            OOO:+++++++O                ++++++++++++            ",
"            OOOO++++++++                ++++++++++++            ",
"        OOO::OOO++++++++                ++++++++++++++++        ",
"        OOOOOO:O++++++++                ++++++++++++++++        ",
"        :OOO:OOO++++++++                ++++++++++++++++        ",
"        OOOOOOOO++++++++                ++++++++++++++++        "
};
