/* XPM */
static char *_604f31d47de434c9a45e175d2aad067oG5gUkaoZovuTICY[] = {
/* columns rows colors chars-per-pixel */
"64 64 4 1 ",
"  c None",
". c #F83800",
"X c #FFA044",
"o c white",
/* pixels */
"                        XXXXXXXXXXXXXXXX                        ",
"                        XXXXXXXXXXXXXXXX                        ",
"                        XXXXXXXXXXXXXXXX                        ",
"                        XXXXXXXXXXXXXXXX                        ",
"                    XXXXXXXXXXXXXXXX........                    ",
"                    XXXXXXXXXXXXXXXX........                    ",
"                    XXXXXXXXXXXXXXXX........                    ",
"                    XXXXXXXXXXXXXXXX........                    ",
"                XXXXXXXXXXXXXXXX................                ",
"                XXXXXXXXXXXXXXXX................                ",
"                XXXXXXXXXXXXXXXX................                ",
"                XXXXXXXXXXXXXXXX................                ",
"            XXXXXXXXXXXXXXXXXXXX....................            ",
"            XXXXXXXXXXXXXXXXXXXX....................            ",
"            XXXXXXXXXXXXXXXXXXXX....................            ",
"            XXXXXXXXXXXXXXXXXXXX....................            ",
"        XXXXXXXXXXXXXXXXXXXXXXXXXXXX............XXXXXXXX        ",
"        XXXXXXXXXXXXXXXXXXXXXXXXXXXX............XXXXXXXX        ",
"        XXXXXXXXXXXXXXXXXXXXXXXXXXXX............XXXXXXXX        ",
"        XXXXXXXXXXXXXXXXXXXXXXXXXXXX............XXXXXXXX        ",
"    XXXXXXXX............XXXXXXXXXXXXXXXXXXXXXXXXXXXXXXXXXXXX    ",
"    XXXXXXXX............XXXXXXXXXXXXXXXXXXXXXXXXXXXXXXXXXXXX    ",
"    XXXXXXXX............XXXXXXXXXXXXXXXXXXXXXXXXXXXXXXXXXXXX    ",
"    XXXXXXXX............XXXXXXXXXXXXXXXXXXXXXXXXXXXXXXXXXXXX    ",
"    XXXX....................XXXXXXXXXXXXXXXXXXXXXXXXXXXXXXXX    ",
"    XXXX....................XXXXXXXXXXXXXXXXXXXXXXXXXXXXXXXX    ",
"    XXXX....................XXXXXXXXXXXXXXXXXXXXXXXXXXXXXXXX    ",
"    XXXX....................XXXXXXXXXXXXXXXXXXXXXXXXXXXXXXXX    ",
"XXXXXXXX....................XXXXXXXXXXXXXXXXXXXX........XXXXXXXX",
"XXXXXXXX....................XXXXXXXXXXXXXXXXXXXX........XXXXXXXX",
"XXXXXXXX....................XXXXXXXXXXXXXXXXXXXX........XXXXXXXX",
"XXXXXXXX....................XXXXXXXXXXXXXXXXXXXX........XXXXXXXX",
"XXXXXXXX....................XXXXXXXXXXXXXXXXXXXX............XXXX",
"XXXXXXXX....................XXXXXXXXXXXXXXXXXXXX............XXXX",
"XXXXXXXX....................XXXXXXXXXXXXXXXXXXXX............XXXX",
"XXXXXXXX....................XXXXXXXXXXXXXXXXXXXX............XXXX",
"XXXXXXXXXXXX............XXXXXXXXXXXXXXXXXXXXXXXXXXXX........XXXX",
"XXXXXXXXXXXX............XXXXXXXXXXXXXXXXXXXXXXXXXXXX........XXXX",
"XXXXXXXXXXXX............XXXXXXXXXXXXXXXXXXXXXXXXXXXX........XXXX",
"XXXXXXXXXXXX............XXXXXXXXXXXXXXXXXXXXXXXXXXXX........XXXX",
"XXXXXXXXXXXXXXXXXXXXXXXXXXXXXXXXXXXXXXXXXXXXXXXXXXXXXXXXXXXXXXXX",
"XXXXXXXXXXXXXXXXXXXXXXXXXXXXXXXXXXXXXXXXXXXXXXXXXXXXXXXXXXXXXXXX",
"XXXXXXXXXXXXXXXXXXXXXXXXXXXXXXXXXXXXXXXXXXXXXXXXXXXXXXXXXXXXXXXX",
"XXXXXXXXXXXXXXXXXXXXXXXXXXXXXXXXXXXXXXXXXXXXXXXXXXXXXXXXXXXXXXXX",
"    XXXX............oooooooooooooooooooooooo............XXXX    ",
"    XXXX............oooooooooooooooooooooooo............XXXX    ",
"    XXXX............oooooooooooooooooooooooo............XXXX    ",
"    XXXX............oooooooooooooooooooooooo............XXXX    ",
"                oooooooooooooooooooooooooooooooo                ",
"                oooooooooooooooooooooooooooooooo                ",
"                oooooooooooooooooooooooooooooooo                ",
"                oooooooooooooooooooooooooooooooo                ",
"                ooooooooooooooooooooooooXXXXoooo                ",
"                ooooooooooooooooooooooooXXXXoooo                ",
"                ooooooooooooooooooooooooXXXXoooo                ",
"                ooooooooooooooooooooooooXXXXoooo                ",
"                ooooooooooooooooooooooooXXXXoooo                ",
"                ooooooooooooooooooooooooXXXXoooo                ",
"                ooooooooooooooooooooooooXXXXoooo                ",
"                ooooooooooooooooooooooooXXXXoooo                ",
"                    ooooooooooooooooXXXXoooo                    ",
"                    ooooooooooooooooXXXXoooo                    ",
"                    ooooooooooooooooXXXXoooo                    ",
"                    ooooooooooooooooXXXXoooo                    "
};
