/* XPM */
static char *_fffaabcbfde4e32bdfc4e6e7cd50073aILh4koGvfUijpcM[] = {
/* columns rows colors chars-per-pixel */
"64 64 94 2 ",
"   c #9B4A11",
".  c #9D4B11",
"X  c #7F3D0E",
"o  c #0C0601",
"O  c black",
"+  c #190C03",
"@  c #8D4410",
"#  c #9C4A11",
"$  c #8F4410",
"%  c #1B0D03",
"&  c #9F4C11",
"*  c #813E0E",
"=  c #9E4B11",
"-  c #914510",
";  c #1C0D03",
":  c #7A3A0D",
">  c #7C3B0E",
",  c #64300B",
"<  c #090401",
"1  c #140902",
"2  c #70350C",
"3  c #7B3B0D",
"4  c #71360C",
"5  c #160A02",
"6  c #070301",
"7  c #010000",
"8  c #010100",
"9  c #080401",
"0  c #020100",
"q  c #1E0E03",
"w  c #160B02",
"e  c #1A0C03",
"r  c #040200",
"t  c #030200",
"y  c #934610",
"u  c #6D340C",
"i  c #060301",
"p  c #200F04",
"a  c #89420F",
"s  c #924610",
"d  c #110802",
"f  c #0F0702",
"g  c #7D3C0E",
"h  c #76380D",
"j  c #231104",
"k  c #944710",
"l  c #9C4B11",
"z  c #89410F",
"x  c #130902",
"c  c #86400F",
"v  c #75380D",
"b  c #221004",
"n  c #88410F",
"m  c #954710",
"M  c #87400F",
"N  c #833F0E",
"B  c #85400F",
"V  c #632F0B",
"C  c #050201",
"Z  c #1D0E03",
"A  c #843F0E",
"S  c #843F0F",
"D  c #73370D",
"F  c #100802",
"G  c #0E0702",
"H  c #853F0F",
"J  c #0B0501",
"K  c #0D0601",
"L  c #150A02",
"P  c #8A420F",
"I  c #8C430F",
"U  c #0A0501",
"Y  c #7E3C0E",
"T  c #8B420F",
"R  c #803D0E",
"E  c #180C03",
"W  c #8E4410",
"Q  c #904510",
"!  c #8D430F",
"~  c #72360D",
"^  c #120902",
"/  c #140A02",
"(  c #030100",
")  c #823E0E",
"_  c #622F0B",
"`  c #833E0E",
"'  c #72370D",
"]  c #100702",
"[  c #70360C",
"{  c #6E340C",
"}  c #1F0F03",
"|  c #170B03",
" . c #1A0D03",
".. c white",
/* pixels */
"                                                    . X o O O + @ #                                                 # $ % O O O ",
"                                                    . X o O O + @ #                                                 # $ % O O O ",
"                                                    . X o O O + @ #                                                 # $ % O O O ",
"                                                    . X o O O + @ #                                                 # $ % O O O ",
"                                                    . X o O O + @ #                                                 # $ % O O O ",
"                                                    . X o O O + @ #                                                 # $ % O O O ",
"                                                    . X o O O + @ #                                                 # $ % O O O ",
"                                                    . X o O O + @ #                                                 # $ % O O O ",
"                                                    . X o O O + @ #                                                 # $ % O O O ",
"                                                    . X o O O + @ #                                                 # $ % O O O ",
". . . . . . . . . . . . . . . . . . . . . . . . . . & * o O O + $ = . . . . . . . . . . . . . . . . . . . . . . . . = - ; O O O ",
": : : : : : : : : : : : : : : : : : : : : : : : : : > , < O O 1 2 3 : : : : : : : : : : : : : : : : : : : : : : : : 3 4 5 O O O ",
"< < < < < < < < < < < < < < < < < < < < < < < < < < < 6 7 O O 8 9 < < < < < < < < < < < < < < < < < < < < < < < < < < 9 0 O O O ",
"O O O O O O O O O O O O O O O O O O O O O O O O O O O O O O O O O O O O O O O O O O O O O O O O O O O O O O O O O O O O O O O O ",
"O O O O O O O O O O O O O O O O O O O O O O O O O O O O O O O O O O O O O O O O O O O O O O O O O O O O O O O O O O O O O O O O ",
"q q q q q q q q q q q w 8 O O 6 ; q q q q q q q q q q q q q q q q q q q q q q q q q q e r O O t + q q q q q q q q q q q q q q q ",
"- - - - - - - - - - y u i O O p a - - - - - - - - - - - - - - - - - - - - - - - - - s X d O O f g s - - - - - - - - - - - - - - ",
"# # # # # # # # # # = h i O O j k l # # # # # # # # # # # # # # # # # # # # # # # # . z x O O d c . # # # # # # # # # # # # # # ",
"                    . v i O O b y                                                   l n x O O d c l                             ",
"                    . v i O O b y                                                   l n x O O d c l                             ",
"                    . v i O O b y                                                   l n x O O d c l                             ",
"                    . v i O O b y                                                   l n x O O d c l                             ",
"                    . v i O O b y                                                   l n x O O d c l                             ",
"                    . v i O O b y                                                   l n x O O d c l                             ",
"                    . v i O O b y                                                   l n x O O d c l                             ",
"                    . v i O O b y                                                   l n x O O d c l                             ",
". . . . . . . . . . & h i O O j m . . . . . . . . . . . . . . . . . . . . . . . . . = a x O O d M = . . . . . . . . . . . . . . ",
"N N N N N N N N N N B V C O O Z g A N N N N N N N N N N N N N N N N N N N N N N N N S D F O O G 4 H N N N N N N N N N N N N N N ",
"f f f f f f f f f f f J 7 O O t G f f f f f f f f f f f f f f f f f f f f f f f f f f K 0 O O 0 K f f f f f f f f f f f f f f f ",
"O O O O O O O O O O O O O O O O O O O O O O O O O O O O O O O O O O O O O O O O O O O O O O O O O O O O O O O O O O O O O O O O ",
"O O O O O O O O O O O O O O O O O O O O O O O O O O O O O O O O O O O O O O O O O O O O O O O O O O O O O O O O O O O O O O O O ",
"L L L L L L L L L L L L L L L L L L L L L L L L L L L d 0 O O t x L L L L L L L L L L L L L L L L L L L L L L L L L L x r O O O ",
"P P P P P P P P P P P P P P P P P P P P P P P P P P I 4 U O O w Y T P P P P P P P P P P P P P P P P P P P P P P P P T R E O O O ",
"l l l l l l l l l l l l l l l l l l l l l l l l l l = R o O O + W . l l l l l l l l l l l l l l l l l l l l l l l l . Q % O O O ",
"                                                    . X o O O + @ #                                                 # $ % O O O ",
"                                                    . X o O O + @ #                                                 # $ % O O O ",
"                                                    . X o O O + @ #                                                 # $ % O O O ",
"                                                    . X o O O + @ #                                                 # $ % O O O ",
"                                                    . X o O O + @ #                                                 # $ % O O O ",
"                                                    . X o O O + @ #                                                 # $ % O O O ",
"                                                    . X o O O + @ #                                                 # $ % O O O ",
"                                                    . X o O O + @ #                                                 # $ % O O O ",
"# # # # # # # # # # # # # # # # # # # # # # # # # # = R o O O + W . # # # # # # # # # # # # # # # # # # # # # # # # . Q % O O O ",
"T T T T T T T T T T T T T T T T T T T T T T T T T T ! ~ U O O w X I T T T T T T T T T T T T T T T T T T T T T T T T I R E O O O ",
"5 5 5 5 5 5 5 5 5 5 5 5 5 5 5 5 5 5 5 5 5 5 5 5 5 5 w ^ 0 O O t 1 5 5 5 5 5 5 5 5 5 5 5 5 5 5 5 5 5 5 5 5 5 5 5 5 5 5 / r O O O ",
"O O O O O O O O O O O O O O O O O O O O O O O O O O O O O O O O O O O O O O O O O O O O O O O O O O O O O O O O O O O O O O O O ",
"O O O O O O O O O O O O O O O O O O O O O O O O O O O O O O O O O O O O O O O O O O O O O O O O O O O O O O O O O O O O O O O O ",
"G G G G G G G G G G G U 7 O O ( K G G G G G G G G G G G G G G G G G G G G G G G G G G o 0 O O 8 o G G G G G G G G G G G G G G G ",
") ) ) ) ) ) ) ) ) ) S _ C O O Z > ` ) ) ) ) ) ) ) ) ) ) ) ) ) ) ) ) ) ) ) ) ) ) ) ) N ' ] O O G [ A ) ) ) ) ) ) ) ) ) ) ) ) ) ) ",
". . . . . . . . . . & h i O O j m . . . . . . . . . . . . . . . . . . . . . . . . . = a x O O d M = . . . . . . . . . . . . . . ",
"                    . v i O O b y                                                   l n x O O d c l                             ",
"                    . v i O O b y                                                   l n x O O d c l                             ",
"                    . v i O O b y                                                   l n x O O d c l                             ",
"                    . v i O O b y                                                   l n x O O d c l                             ",
"                    . v i O O b y                                                   l n x O O d c l                             ",
"                    . v i O O b y                                                   l n x O O d c l                             ",
"                    . v i O O b y                                                   l n x O O d c l                             ",
"                    . v i O O b y                                                   l n x O O d c l                             ",
"# # # # # # # # # # = v i O O j k l # # # # # # # # # # # # # # # # # # # # # # # # . z x O O d c . # # # # # # # # # # # # # # ",
"- - - - - - - - - - y { i O O p P s - - - - - - - - - - - - - - - - - - - - - - - - y R d O O ] g y - - - - - - - - - - - - - - ",
"} } } } } } } } } } } | 8 O O 6 Z } } } } } } } } } } } } } } } } } } } } } } } } } } % r O O t  .} } } } } } } } } } } } } } } ",
"O O O O O O O O O O O O O O O O O O O O O O O O O O O O O O O O O O O O O O O O O O O O O O O O O O O O O O O O O O O O O O O O ",
"O O O O O O O O O O O O O O O O O O O O O O O O O O O O O O O O O O O O O O O O O O O O O O O O O O O O O O O O O O O O O O O O ",
"O O O O O O O O O O O O O O O O O O O O O O O O O O O O O O O O O O O O O O O O O O O O O O O O O O O O O O O O O O O O O O O O "
};
